{"accessors" : [{"bufferView" : 0, "byteOffset" : 0, "componentType" : 5123, "count" : 2508, "type" : "SCALAR", "max" : [2071], "min" : [0]}, {"bufferView" : 1, "byteOffset" : 0, "componentType" : 5126, "count" : 2072, "type" : "VEC3", "max" : [1.0260000228881836, 15.38070011138916, 5.792500019073486], "min" : [-1.0260000228881836, 0, -5.792500019073486], "name" : "POSITION"}, {"bufferView" : 1, "byteOffset" : 12, "componentType" : 5126, "count" : 2072, "type" : "VEC2", "max" : [0.9886999726295471, -0.022299999371170998], "min" : [0.00570000009611249, -0.9818000197410583], "name" : "TEXCOORD_0"}, {"bufferView" : 1, "byteOffset" : 20, "componentType" : 5126, "count" : 2072, "type" : "VEC3", "max" : [0.9931853413581848, 1.0000044107437134, 1.0000044107437134], "min" : [-0.9931853413581848, -1.0000044107437134, -1.0000044107437134], "name" : "NORMAL"}], "asset" : {"generator" : "Aspose.3D 23.7.0", "version" : "2.0"}, "buffers" : [{"uri" : "data:application/octet-stream;base64,", "byteLength" : 85280}], "bufferViews" : [{"buffer" : 0, "byteOffset" : 0, "byteLength" : 5016, "target" : 34963}, {"buffer" : 0, "byteOffset" : 5020, "byteLength" : 80256, "byteStride" : 32, "target" : 34962}], "materials" : [{"name" : "wire_141007058", "pbrMetallicRoughness" : {"baseColorFactor" : [0.5529, 0.0275, 0.2275, 1], "metallicFactor" : 0, "roughnessFactor" : 0}, "emissiveFactor" : [0, 0, 0], "alphaMode" : "OPAQUE", "doubleSided" : false}], "meshes" : [{"primitives" : [{"attributes" : {"POSITION" : 1, "TEXCOORD_0" : 2, "NORMAL" : 3}, "indices" : 0, "material" : 0, "mode" : 4}], "name" : ""}], "nodes" : [{"mesh" : 0, "name" : "Sample_Book_01"}], "scene" : 0, "scenes" : [{"nodes" : [0]}]}