{"accessors" : [{"bufferView" : 0, "byteOffset" : 0, "componentType" : 5123, "count" : 156, "type" : "SCALAR", "max" : [155], "min" : [0]}, {"bufferView" : 1, "byteOffset" : 0, "componentType" : 5126, "count" : 156, "type" : "VEC3", "max" : [6.873166561126709, 21, 3.499999523162842], "min" : [-7.126827239990234, 0, -4.190951585769653E-08], "name" : "POSITION"}, {"bufferView" : 1, "byteOffset" : 12, "componentType" : 5126, "count" : 156, "type" : "VEC3", "max" : [0.5773528814315796, 0.9045380353927612, 0.9045380353927612], "min" : [-0.7183374762535095, -0.9045380353927612, -0.9045380353927612], "name" : "NORMAL"}, {"bufferView" : 1, "byteOffset" : 24, "componentType" : 5126, "count" : 156, "type" : "VEC2", "max" : [0.9789184331893921, -0.053939372301101685], "min" : [0.027908146381378174, -0.9555627703666687], "name" : "TEXCOORD_0"}], "asset" : {"generator" : "Aspose.3D 23.7.0", "version" : "2.0"}, "buffers" : [{"uri" : "data:application/octet-stream;base64,", "byteLength" : 5312}], "bufferViews" : [{"buffer" : 0, "byteOffset" : 0, "byteLength" : 312, "target" : 34963}, {"buffer" : 0, "byteOffset" : 316, "byteLength" : 4992, "byteStride" : 32, "target" : 34962}], "images" : [{"uri" : "C:\\Users\\jerem\\Desktop\\TestBlender\\Vrac\\ShoeboxTextures\\OldBook001\\OldBook001_tex.png"}], "materials" : [{"name" : "OldBook001_mat", "pbrMetallicRoughness" : {"baseColorFactor" : [0.800000011920929, 0.800000011920929, 0.800000011920929, 1], "baseColorTexture" : {"index" : 0, "texCoord" : 0}, "metallicFactor" : 0, "roughnessFactor" : 0}, "emissiveFactor" : [0, 0, 0], "alphaMode" : "OPAQUE", "doubleSided" : false}], "meshes" : [{"primitives" : [{"attributes" : {"POSITION" : 1, "NORMAL" : 2, "TEXCOORD_0" : 3}, "indices" : 0, "material" : 0, "mode" : 4}], "name" : "Cube.002"}], "nodes" : [{"matrix" : [1.0000004768371582, 0, 0, 0, 0, 1.0000001192092896, 0, 0, 0, 0, 1.0000001192092896, 0, 0, 0, 0, 1], "mesh" : 0, "name" : "OldBook001"}], "samplers" : [{"magFilter" : 9729, "minFilter" : 9729, "wrapS" : 10497, "wrapT" : 10497}], "scene" : 0, "scenes" : [{"nodes" : [0]}], "textures" : [{"sampler" : 0, "source" : 0, "name" : "base_color_texture"}]}