{"asset": {"version": "2.0", "generator": "Your Converter"}, "meshes": [{"primitives": [{"attributes": {"POSITION": 0}, "indices": 1, "mode": 4}]}], "accessors": [{"bufferView": 0, "componentType": 5126, "count": 9832, "type": "VEC3", "max": [[5.2632, 6.3158, 5.2632]], "min": [[-5.2632, 0.0, -5.2632]]}, {"bufferView": 1, "componentType": 5125, "count": 44244, "type": "SCALAR"}], "bufferViews": [{"buffer": 0, "byteOffset": 0, "byteLength": 117984, "target": 34962}, {"buffer": 0, "byteOffset": 117984, "byteLength": 176976, "target": 34963}], "buffers": [{"byteLength": 294960}]}