{
    "asset": {
        "version": "2.0",
        "generator": "Open Asset Import Library (assimp v5.0.0)"
    },
    "extensionsUsed": [
        "KHR_materials_volume",
        "FB_ngon_encoding"
    ],
    "accessors": [
        {
            "bufferView": 0,
            "byteOffset": 0,
            "componentType": 5126,
            "count": 306,
            "type": "VEC3",
            "max": [
                8.133628845214844,
                11.371406555175782,
                5.5744757652282719
            ],
            "min": [
                -3.9615979194641115,
                -6.65369987487793,
                0.16343599557876588
            ]
        },
        {
            "bufferView": 1,
            "byteOffset": 0,
            "componentType": 5126,
            "count": 306,
            "type": "VEC3",
            "max": [
                1.0,
                1.0,
                1.0
            ],
            "min": [
                -1.0,
                -1.0,
                -1.0
            ]
        },
        {
            "bufferView": 2,
            "byteOffset": 0,
            "componentType": 5126,
            "count": 306,
            "type": "VEC2",
            "max": [
                0.9992979764938355,
                0.9995139837265015
            ],
            "min": [
                0.0006089999806135893,
                0.0008919835090637207
            ]
        },
        {
            "bufferView": 3,
            "byteOffset": 0,
            "componentType": 5125,
            "count": 528,
            "type": "SCALAR",
            "max": [
                305
            ],
            "min": [
                0
            ]
        }
    ],
    "buffers": [
        {
            "byteLength": 11904,
            "uri": "cottage.bin"
        }
    ],
    "bufferViews": [
        {
            "buffer": 0,
            "byteOffset": 0,
            "byteLength": 3672,
            "target": 34962
        },
        {
            "buffer": 0,
            "byteOffset": 3672,
            "byteLength": 3672,
            "target": 34962
        },
        {
            "buffer": 0,
            "byteOffset": 7344,
            "byteLength": 2448,
            "target": 34962
        },
        {
            "buffer": 0,
            "byteOffset": 9792,
            "byteLength": 2112,
            "target": 34963
        }
    ],
    "images": [
        {
            "uri": "https://raw.githubusercontent.com/RedisMadani/experimental-space/main/cottage/nazivaevsk_1et_dom5.jpg"
        }
    ],
    "materials": [
        {
            "name": "01 - Default",
            "pbrMetallicRoughness": {
                "baseColorTexture": {
                    "index": 0
                },
                "baseColorFactor": [
                    0.5882350206375122,
                    0.5882350206375122,
                    0.5882350206375122,
                    1.0
                ],
                "metallicFactor": 0.0
            },
            "emissiveFactor": [
                0.5882350206375122,
                0.5882350206375122,
                0.5882350206375122
            ]
        }
    ],
    "meshes": [
        {
            "name": "Box001",
            "primitives": [
                {
                    "mode": 4,
                    "material": 0,
                    "indices": 3,
                    "attributes": {
                        "POSITION": 0,
                        "NORMAL": 1,
                        "TEXCOORD_0": 2
                    }
                }
            ]
        }
    ],
    "nodes": [
        {
            "name": "Box001",
            "mesh": 0
        }
    ],
    "samplers": [
        {}
    ],
    "scenes": [
        {
            "nodes": [
                0
            ]
        }
    ],
    "textures": [
        {
            "source": 0,
            "sampler": 0
        }
    ],
    "scene": 0
}
